<svg width="173" height="37" viewBox="0 0 173 37" fill="none" xmlns="http://www.w3.org/2000/svg">
<path d="M0 16.2858L20.5714 22.7143L18.3354 28.2858L0 22.4733V16.2858Z" fill="#0A1241"/>
<path d="M0.857178 27.3989C0.857178 27.3989 6.0048 27.5763 10.4953 26.6896C14.9857 25.8029 20.5715 22.7142 20.5715 22.7142V29.5271C20.5715 29.5271 19.4762 31.1231 11.8096 32.5419C4.14289 33.9606 0.857178 33.2511 0.857178 33.2511V27.3989Z" fill="#00C9CB"/>
<path d="M0 5.14282C0 5.14282 13.2245 11.1919 22.0408 10.2857C30.8571 9.37942 29.9755 12.1904 29.9755 12.1904C29.9755 12.1904 29.9755 16.7142 29.9755 17.5714C29.9755 18.4285 7.34234 13.9208 0 11.5714V5.14282Z" fill="#0E123E"/>
<path d="M0 5.12482C0 5.12482 7.5 6.41458 15 2.4531C22.5 -1.50839 30 0.518417 30 0.518417V7.52011C30 7.52011 24.4853 4.38778 15 9.08628C5.51471 13.7848 0 11.3895 0 11.3895V5.12482Z" fill="#FDA707"/>
<path d="M0 16.2676C0 16.2676 7.5 17.5574 15 13.5959C22.5 9.63443 30 11.6612 30 11.6612V18.6629C30 18.6629 24.4853 15.5306 15 20.2291C5.51471 24.9276 0 22.5323 0 22.5323V16.2676Z" fill="#FF5C1F"/>
<path d="M45 28.4464C44.4477 28.4464 44 27.9987 44 27.4464V2.53729C44 1.985 44.4477 1.53729 45 1.53729H60.8168C61.369 1.53729 61.8168 1.985 61.8168 2.53729V5.22798C61.8168 5.78027 61.369 6.22798 60.8168 6.22798H50.6893C50.137 6.22798 49.6893 6.6757 49.6893 7.22798V11.6399C49.6893 12.1922 50.137 12.6399 50.6893 12.6399H59.6342C60.1865 12.6399 60.6342 13.0876 60.6342 13.6399V16.3306C60.6342 16.8829 60.1865 17.3306 59.6342 17.3306H50.6893C50.137 17.3306 49.6893 17.7783 49.6893 18.3306V27.4464C49.6893 27.9987 49.2416 28.4464 48.6893 28.4464H45Z" fill="white"/>
<path d="M66.5384 28.4464C65.9862 28.4464 65.5384 27.9987 65.5384 27.4464V9.26456C65.5384 8.71228 65.9862 8.26456 66.5384 8.26456H70.1357C70.688 8.26456 71.1357 8.71228 71.1357 9.26456V27.4464C71.1357 27.9987 70.688 28.4464 70.1357 28.4464H66.5384ZM68.3502 5.663C67.5181 5.663 66.8042 5.38707 66.2085 4.83523C65.6217 4.27462 65.3282 3.60452 65.3282 2.82493C65.3282 2.0541 65.6217 1.39276 66.2085 0.84091C66.8042 0.280303 67.5181 0 68.3502 0C69.1824 0 69.8919 0.280303 70.4788 0.84091C71.0744 1.39276 71.3722 2.0541 71.3722 2.82493C71.3722 3.60452 71.0744 4.27462 70.4788 4.83523C69.8919 5.38707 69.1824 5.663 68.3502 5.663Z" fill="white"/>
<path d="M81.2168 16.7788V27.4464C81.2168 27.9987 80.7691 28.4464 80.2168 28.4464H76.6195C76.0672 28.4464 75.6195 27.9987 75.6195 27.4464V9.26456C75.6195 8.71228 76.0672 8.26456 76.6195 8.26456H79.954C80.5063 8.26456 80.954 8.71228 80.954 9.26456V11.6853C80.954 11.7626 81.0167 11.8253 81.094 11.8253V11.8253C81.1521 11.8253 81.2041 11.7893 81.2255 11.7353C81.6759 10.604 82.4132 9.70546 83.4373 9.03977C84.4885 8.34778 85.763 8.00178 87.2608 8.00178C88.6623 8.00178 89.8843 8.30836 90.9267 8.92152C91.969 9.53468 92.7793 10.4106 93.3574 11.5494C93.9355 12.6793 94.2246 14.0283 94.2246 15.5962V27.4464C94.2246 27.9987 93.7769 28.4464 93.2246 28.4464H89.6273C89.075 28.4464 88.6273 27.9987 88.6273 27.4464V16.5948C88.6361 15.3597 88.3207 14.3962 87.6813 13.7042C87.0418 13.0034 86.1615 12.6531 85.0403 12.6531C84.287 12.6531 83.6213 12.8151 83.0431 13.1392C82.4738 13.4633 82.027 13.9363 81.7029 14.5582C81.3876 15.1714 81.2256 15.9116 81.2168 16.7788Z" fill="white"/>
<path d="M99.6361 36.0146C99.0838 36.0146 98.6361 35.5668 98.6361 35.0146V9.26456C98.6361 8.71228 99.0838 8.26456 99.6361 8.26456H103.155C103.707 8.26456 104.155 8.71228 104.155 9.26456V11.5028C104.155 11.5866 104.222 11.6545 104.306 11.6545V11.6545C104.366 11.6545 104.42 11.6195 104.445 11.5656C104.688 11.0512 105.03 10.529 105.468 9.99894C105.941 9.42957 106.555 8.95656 107.308 8.5799C108.07 8.19449 109.016 8.00178 110.146 8.00178C111.618 8.00178 112.975 8.38719 114.219 9.15803C115.463 9.9201 116.457 11.072 117.202 12.6136C117.946 14.1465 118.319 16.0692 118.319 18.3817C118.319 20.6329 117.955 22.5337 117.228 24.0842C116.51 25.6258 115.529 26.7952 114.285 27.5923C113.05 28.3807 111.666 28.7749 110.133 28.7749C109.047 28.7749 108.123 28.5953 107.361 28.2362C106.607 27.877 105.99 27.4259 105.508 26.8828C105.044 26.3509 104.685 25.815 104.432 25.2749C104.415 25.238 104.378 25.2141 104.337 25.2141V25.2141C104.28 25.2141 104.233 25.2606 104.233 25.318V35.0146C104.233 35.5668 103.786 36.0146 103.233 36.0146H99.6361ZM104.115 18.3555C104.115 19.5555 104.282 20.6023 104.614 21.4957C104.947 22.3892 105.429 23.0856 106.06 23.5849C106.69 24.0754 107.457 24.3207 108.359 24.3207C109.27 24.3207 110.041 24.071 110.672 23.5717C111.302 23.0637 111.78 22.3629 112.104 21.4695C112.437 20.5672 112.603 19.5292 112.603 18.3555C112.603 17.1905 112.441 16.1656 112.117 15.2809C111.793 14.3962 111.315 13.7042 110.685 13.2049C110.054 12.7056 109.279 12.456 108.359 12.456C107.448 12.456 106.677 12.6969 106.047 13.1786C105.425 13.6604 104.947 14.3436 104.614 15.2283C104.282 16.113 104.115 17.1554 104.115 18.3555Z" fill="white"/>
<path d="M126.647 1.53729C127.2 1.53729 127.647 1.985 127.647 2.53729V27.4464C127.647 27.9987 127.2 28.4464 126.647 28.4464H123.05C122.498 28.4464 122.05 27.9987 122.05 27.4464V2.53729C122.05 1.985 122.498 1.53729 123.05 1.53729H126.647Z" fill="white"/>
<path d="M137.886 28.8274C136.599 28.8274 135.451 28.604 134.444 28.1573C133.436 27.7018 132.639 27.0317 132.052 26.147C131.474 25.2536 131.185 24.1411 131.185 22.8097C131.185 21.6884 131.391 20.7468 131.803 19.9847C132.214 19.2227 132.775 18.6095 133.485 18.1452C134.194 17.681 135 17.3306 135.902 17.0941C136.813 16.8576 137.768 16.6912 138.767 16.5948C139.94 16.4722 140.886 16.3583 141.605 16.2532C142.323 16.1393 142.844 15.9729 143.168 15.7539C143.492 15.5349 143.654 15.2108 143.654 14.7816V14.7028C143.654 13.8706 143.392 13.2268 142.866 12.7713C142.349 12.3158 141.613 12.0881 140.659 12.0881C139.651 12.0881 138.85 12.3114 138.254 12.7582C137.897 13.0207 137.612 13.3241 137.4 13.6684C137.151 14.0731 136.731 14.3861 136.257 14.3476L133.03 14.0855C132.428 14.0366 132.001 13.4657 132.213 12.9002C132.503 12.1255 132.913 11.4299 133.445 10.8136C134.216 9.91134 135.21 9.21934 136.428 8.73757C137.654 8.24704 139.073 8.00178 140.685 8.00178C141.806 8.00178 142.879 8.13317 143.904 8.39595C144.938 8.65874 145.853 9.06605 146.65 9.6179C147.456 10.1697 148.091 10.8793 148.555 11.7465C149.019 12.6049 149.252 13.6341 149.252 14.8342V27.4464C149.252 27.9987 148.804 28.4464 148.252 28.4464H144.943C144.391 28.4464 143.943 27.9987 143.943 27.4464V25.7456C143.943 25.6916 143.9 25.6477 143.845 25.6477V25.6477C143.809 25.6477 143.775 25.6683 143.758 25.7007C143.437 26.3096 143.013 26.8482 142.485 27.3164C141.942 27.7894 141.289 28.1617 140.527 28.4332C139.765 28.696 138.885 28.8274 137.886 28.8274ZM139.489 24.9645C140.313 24.9645 141.04 24.8024 141.67 24.4783C142.301 24.1455 142.796 23.6987 143.155 23.1381C143.514 22.5775 143.694 21.9425 143.694 21.233V19.882C143.694 19.5415 143.296 19.3045 142.971 19.4066V19.4066C142.673 19.4942 142.336 19.5774 141.959 19.6563C141.583 19.7263 141.206 19.792 140.829 19.8533C140.453 19.9059 140.111 19.9541 139.805 19.9979C139.148 20.0942 138.574 20.2475 138.083 20.4577C137.593 20.668 137.212 20.9527 136.94 21.3118C136.669 21.6622 136.533 22.1001 136.533 22.6257C136.533 23.3878 136.809 23.9703 137.361 24.3732C137.921 24.7674 138.631 24.9645 139.489 24.9645Z" fill="white"/>
<path d="M159.191 16.7788V27.4464C159.191 27.9987 158.744 28.4464 158.191 28.4464H154.594C154.042 28.4464 153.594 27.9987 153.594 27.4464V9.26456C153.594 8.71228 154.042 8.26456 154.594 8.26456H157.929C158.481 8.26456 158.929 8.71228 158.929 9.26456V11.6853C158.929 11.7626 158.991 11.8253 159.069 11.8253V11.8253C159.127 11.8253 159.179 11.7893 159.2 11.7353C159.651 10.604 160.388 9.70546 161.412 9.03977C162.463 8.34778 163.738 8.00178 165.235 8.00178C166.637 8.00178 167.859 8.30836 168.901 8.92152C169.944 9.53468 170.754 10.4106 171.332 11.5494C171.91 12.6793 172.199 14.0283 172.199 15.5962V27.4464C172.199 27.9987 171.752 28.4464 171.199 28.4464H167.602C167.05 28.4464 166.602 27.9987 166.602 27.4464V16.5948C166.611 15.3597 166.295 14.3962 165.656 13.7042C165.016 13.0034 164.136 12.6531 163.015 12.6531C162.262 12.6531 161.596 12.8151 161.018 13.1392C160.448 13.4633 160.002 13.9363 159.678 14.5582C159.362 15.1714 159.2 15.9116 159.191 16.7788Z" fill="white"/>
</svg>
